# xmcd
#
# Track frame offsets: 
#        150
#        45243
#        62048
#        84489
#        115684
#        123992
#        132043
#        141249
#        156820
#        180144
#        186341
#        215728
#        224290
#
# Disc length: 3192 seconds
#
# Revision: 0
# Processed by: cddbd v1.5.2PL0 Copyright (c) Steve Scherf et al.
# Submitted via: ExactAudioCopy v1.3
#
DISCID=b20c760d
DTITLE=Fischer, Andreas - Flentrop-Orgel (rekon 2013) St.Katharinen Ha
DTITLE=mburg - Bach - Clavier-Übung III (Fis cd1)
DYEAR=2018
DGENRE=Orgel
TTITLE0=Prelude in E Flat Major, BWV 552
TTITLE1=Kyrie, Gott Vater in Ewigkeit, BWV 669
TTITLE2=Christe, aller Welt Trost, BWV 670
TTITLE3=Kyrie, Gott heiliger Geist, BWV 671
TTITLE4=Kyrie, Gott Vater in Ewigkeit, BWV 672
TTITLE5=Christe, aller Welt Trost, BWV 673
TTITLE6=Kyrie, Gott heiliger Geist, BWV 674
TTITLE7=Allein Gott in der Hoh' sei Ehr', BWV 675
TTITLE8=Allein Gott in der Hoh' sei Ehr', BWV 676
TTITLE9=Fughetta super- Allein Gott in der Höh' sei Ehr', BWV 677
TTITLE10=Dies sind die heil'gen zehn Gebot', BWV 678
TTITLE11=Fughetta super- Dies sind die heil'gen zehn Gebot', BWV 679
TTITLE12=Wir glauben all' an einen Gott, BWV 680
EXTD=
EXTT0=
EXTT1=
EXTT2=
EXTT3=
EXTT4=
EXTT5=
EXTT6=
EXTT7=
EXTT8=
EXTT9=
EXTT10=
EXTT11=
EXTT12=
PLAYORDER=
